<svg version="1.1" viewBox="0.0 0.0 645.8713910761155 113.44356955380577" fill="none" stroke="none" stroke-linecap="square" stroke-miterlimit="10" xmlns:xlink="http://www.w3.org/1999/xlink" xmlns="http://www.w3.org/2000/svg"><clipPath id="p.0"><path d="m0 0l645.8714 0l0 113.44357l-645.8714 0l0 -113.44357z" clip-rule="nonzero"/></clipPath><g clip-path="url(#p.0)"><path fill="#000000" fill-opacity="0.0" d="m0 0l645.8714 0l0 113.44357l-645.8714 0z" fill-rule="evenodd"/><path fill="#f3b22d" d="m561.5739 83.755615l18.047241 0l0 25.322838l-18.047241 0z" fill-rule="evenodd"/><path fill="#f3b22d" d="m586.24677 101.657364l0 -25.322838l18.047241 25.322838z" fill-rule="evenodd"/><path fill="#ea823d" d="m604.2767 76.316925l0 25.32283l-18.047241 -25.32283z" fill-rule="evenodd"/><path fill="#ea823d" d="m593.02563 4.46634l48.251953 0l0 64.314964l-48.251953 0z" fill-rule="evenodd"/><path fill="#f3b22d" d="m537.9838 76.34604l0 -64.31496l48.252014 64.31496z" fill-rule="evenodd"/><path fill="#ea823d" d="m586.24677 12.019565l0 64.314964l-48.251953 -64.314964z" fill-rule="evenodd"/><path fill="#000000" fill-opacity="0.0" d="m-8.0 -32.0l545.98425 0l0 143.87402l-545.98425 0z" fill-rule="evenodd"/><path fill="#000000" d="m21.984375 99.880005l-21.375 0l34.046875 -46.34375l-32.25 -43.25l22.140625 0l21.25 29.4375l21.125 -29.4375l21.375 0l-31.875 43.25l34.5625 46.34375l-22.140625 0l-23.421875 -32.640625l-23.4375 32.640625zm76.55014 -89.59375l42.109375 0q13.4375 0 21.890625 6.84375q8.453125 6.84375 8.453125 17.71875q0 5.890625 -2.953125 10.765625q-2.9375 4.859375 -8.0625 8.0625q6.40625 3.0625 10.234375 8.375q3.84375 5.3125 3.84375 11.84375q0 11.640625 -8.640625 18.8125q-8.640625 7.171875 -22.71875 7.171875l-44.15625 0l0 -89.59375zm40.96875 15.359375l-22.40625 0l0 21.25l22.40625 0q5.875 0 9.453125 -2.875q3.59375 -2.890625 3.59375 -7.75q0 -4.875 -3.59375 -7.75q-3.578125 -2.875 -9.453125 -2.875zm1.78125 58.875q6.40625 0 10.234375 -3.125q3.84375 -3.140625 3.84375 -8.53125q0 -5.109375 -3.84375 -8.3125q-3.828125 -3.203125 -10.234375 -3.203125l-24.1875 0l0 23.171875l24.1875 0zm60.293015 -51.328125l0 38.78125q0 6.40625 3.765625 10.25q3.78125 3.828125 10.0625 3.828125q4.46875 0 7.984375 -1.71875q3.53125 -1.734375 5.828125 -4.9375l0 -46.203125l17.546875 0l0 66.6875l-17.546875 0l0 -5.375q-3.828125 3.203125 -8.578125 4.9375q-4.734375 1.71875 -10.234375 1.71875q-11.515625 0 -18.9375 -7.484375q-7.421875 -7.5 -7.421875 -19.140625l0 -41.34375l17.53125 0zm67.57588 -7.9375q-4.09375 0 -7.046875 -2.9375q-2.9375 -2.953125 -2.9375 -7.046875q0 -4.09375 2.9375 -7.03125q2.953125 -2.953125 7.046875 -2.953125q4.109375 0 7.046875 2.953125q2.9375 2.9375 2.9375 7.03125q0 4.09375 -2.9375 7.046875q-2.9375 2.9375 -7.046875 2.9375zm8.84375 7.9375l0 66.6875l-17.546875 0l0 -66.6875l17.546875 0zm31.232025 -26.75l0 93.4375l-17.546875 0l0 -89.59375l17.546875 -3.84375zm63.481995 93.4375l0 -5.5q-3.96875 3.203125 -8.828125 4.796875q-4.859375 1.59375 -10.109375 1.59375q-7.046875 0 -13.265625 -2.6875q-6.203125 -2.6875 -10.8125 -7.296875q-4.59375 -4.609375 -7.21875 -10.875q-2.625 -6.265625 -2.625 -13.4375q0 -7.171875 2.6875 -13.4375q2.6875 -6.28125 7.296875 -10.890625q4.609375 -4.609375 10.9375 -7.21875q6.34375 -2.625 13.5 -2.625q4.875 0 9.546875 1.34375q4.671875 1.34375 8.640625 3.890625l0 -27.25l17.53125 -3.84375l0 93.4375l-17.28125 0zm-35.578125 -33.40625q0 8.0625 5.625 13.703125q5.640625 5.625 13.828125 5.625q4.859375 0 8.890625 -1.65625q4.03125 -1.671875 6.984375 -4.75l0 -25.984375q-2.828125 -2.9375 -6.984375 -4.59375q-4.15625 -1.671875 -8.890625 -1.671875q-8.328125 0 -13.890625 5.578125q-5.5625 5.5625 -5.5625 13.75zm126.458496 25.09375q-6.140625 4.984375 -12.609375 7.296875q-6.46875 2.296875 -14.390625 2.296875q-7.5625 0 -14.15625 -2.6875q-6.59375 -2.6875 -11.390625 -7.296875q-4.796875 -4.609375 -7.546875 -10.9375q-2.75 -6.34375 -2.75 -13.640625q0 -7.171875 2.625 -13.5q2.625 -6.34375 7.21875 -11.015625q4.609375 -4.671875 10.9375 -7.359375q6.34375 -2.6875 13.515625 -2.6875q7.046875 0 13.125 2.75q6.078125 2.75 10.484375 7.5q4.421875 4.734375 6.921875 11.328125q2.5 6.578125 2.5 14.265625l0 4.609375l-49.671875 0q1.796875 6.265625 6.90625 10.109375q5.125 3.84375 12.046875 3.84375q4.34375 0 8.1875 -1.40625q3.84375 -1.40625 6.53125 -3.96875l11.515625 10.5zm-28.921875 -45.0625q-6.015625 0 -10.375 3.65625q-4.34375 3.640625 -6.015625 9.78125l32.640625 0q-1.65625 -5.890625 -6.078125 -9.65625q-4.421875 -3.78125 -10.171875 -3.78125zm44.14862 53.375l0 -66.6875l17.546875 0l0 7.296875q3.1875 -4.359375 7.734375 -6.59375q4.546875 -2.234375 10.046875 -2.234375q2.5625 0.125 4.28125 0.453125q1.734375 0.3125 3.015625 1.078125l0 15.359375q-1.921875 -0.890625 -4.21875 -1.34375q-2.296875 -0.453125 -4.734375 -0.453125q-5.125 0 -9.421875 2.5625q-4.28125 2.5625 -6.703125 7.421875l0 43.140625l-17.546875 0z" fill-rule="nonzero"/></g></svg>